PathFileType	4	(X/Y/Z)	C:/Users/opensim2020/Desktop/walking_exp_matlab/subject01_walking12_straight_04.trc	
DataRate	CameraRate	NumFrames	NumMarkers	Units	OrigDataRate	OrigDataStartFrame	OrigNumFrames	
100.00	100.00	5	44	mm	100.00	2436	172	
Frame#	Time	LFHD			RFHD			LBHD			RBHD			C7			T10			CLAV			STRN			RBAK			LSHO			LUPA			LELB			LFRM			LWRA			LWRB			LFIN			RSHO			RUPA			RELB			RFRM			RWRA			RWRB			RFIN			LASI			RASI			LPSI			RPSI			LTHI			LKNE			LTIB			LANK			LHEE			LTOE			RTHI			RKNE			RTIB			RANK			RHEE			RTOE			*39			*40			*41			*42			*43			
		X1	Y1	Z1	X2	Y2	Z2	X3	Y3	Z3	X4	Y4	Z4	X5	Y5	Z5	X6	Y6	Z6	X7	Y7	Z7	X8	Y8	Z8	X9	Y9	Z9	X10	Y10	Z10	X11	Y11	Z11	X12	Y12	Z12	X13	Y13	Z13	X14	Y14	Z14	X15	Y15	Z15	X16	Y16	Z16	X17	Y17	Z17	X18	Y18	Z18	X19	Y19	Z19	X20	Y20	Z20	X21	Y21	Z21	X22	Y22	Z22	X23	Y23	Z23	X24	Y24	Z24	X25	Y25	Z25	X26	Y26	Z26	X27	Y27	Z27	X28	Y28	Z28	X29	Y29	Z29	X30	Y30	Z30	X31	Y31	Z31	X32	Y32	Z32	X33	Y33	Z33	X34	Y34	Z34	X35	Y35	Z35	X36	Y36	Z36	X37	Y37	Z37	X38	Y38	Z38	X39	Y39	Z39	X40	Y40	Z40	X41	Y41	Z41	X42	Y42	Z42	X43	Y43	Z43	X44	Y44	Z44	

65	0.640	1532.08191	196.11223	1659.03784	1420.54614	176.19962	1661.93713	1518.05237	316.62170	1630.09595	1398.83191	298.50696	1632.31042	1467.61328	373.35269	1432.75110	1452.81836	418.65143	1139.52808	1479.21301	233.58601	1357.87366	1485.13208	196.90771	1202.85767	1380.06116	428.17004	1240.60400	1635.24365	308.86411	1389.72021	1705.89697	383.11447	1214.16748	1695.68030	426.09436	1067.60718	1722.97437	407.16351	954.90088	1717.99500	338.48404	832.01843	1726.81812	398.41608	832.72137	1743.31543	363.29959	756.98694	1323.13098	281.54764	1391.83167	1208.65393	334.30951	1199.20483	1196.01013	329.73917	1071.35461	1178.51611	260.95007	966.40918	1218.17993	148.62334	888.53363	1174.43921	183.06892	872.05603	1183.97742	119.94839	816.69397	1574.44287	249.45880	934.78448	1356.39807	243.35910	926.42969	1519.67969	433.58539	942.17310	1375.87439	428.34473	946.84192	1647.73096	186.01007	625.59869	1633.19495	158.16747	493.49112	1647.85156	197.37743	309.85553	1604.82947	201.54510	86.70615	1545.25952	235.53357	49.93710	1626.55078	61.26353	61.90343	1317.35522	340.37766	597.45044	1348.23108	361.50928	439.83234	1349.51099	443.91779	283.56256	1402.00354	509.96326	89.56565	1450.94775	565.64575	60.78630	1404.58154	377.15884	35.96703	1442.09216	184.52380	1696.91516	-3101.92139	1973.04700	1023.51691	-3140.65649	2012.59351	1022.12390						 
66	0.650	1533.71045	184.75758	1657.82776	1422.21960	164.65086	1660.85034	1519.48828	305.30774	1629.33325	1400.28613	287.06119	1631.67371	1468.88123	362.48007	1431.97290	1454.38928	408.15649	1138.83582	1480.42493	222.86588	1357.00073	1485.98230	186.28648	1201.97900	1381.20032	417.70126	1240.08203	1636.47485	297.94977	1388.69543	1706.75720	372.33411	1213.07361	1695.66638	415.60681	1066.73853	1722.19971	398.16187	953.72363	1716.32568	331.77988	829.67560	1725.46887	391.62820	831.45020	1741.15405	357.93573	754.88568	1324.38745	270.93591	1391.08008	1209.66394	323.17535	1198.97461	1196.67334	318.39758	1070.93970	1179.77026	247.98528	967.03619	1219.96631	134.04631	891.40674	1176.39258	168.27254	873.95758	1186.01904	104.15849	820.06110	1574.84570	238.03728	934.00079	1356.76709	233.64977	925.82111	1521.41870	422.58563	941.61133	1377.66895	418.36053	946.74091	1647.93799	177.33781	623.40845	1632.67041	148.17422	491.98917	1649.18140	178.21353	307.61639	1607.56714	169.55823	83.64624	1549.04370	203.14946	45.22160	1626.41748	27.32402	66.32310	1317.47717	333.76413	597.55157	1348.18164	356.45737	439.91461	1349.64575	440.83591	284.80020	1401.85693	509.04529	91.18779	1450.84900	565.06830	63.18130	1404.49792	377.06839	35.94096	1443.75647	172.93030	1695.84802	-3102.07715	1973.12964	1023.38745	-3140.76929	2012.44104	1022.06274						 
67	0.660	1535.33887	173.34886	1656.59375	1423.89026	153.14378	1659.69043	1520.96899	293.98834	1628.54077	1401.78455	275.63336	1630.94299	1470.31714	351.67850	1431.12585	1456.05859	397.54382	1138.04309	1481.74536	212.12241	1356.16370	1486.91260	175.64645	1201.06714	1382.50366	407.18369	1239.50134	1637.85840	286.94113	1387.73047	1707.81104	361.40775	1211.93555	1695.77466	404.78223	1065.85071	1721.80896	388.99072	952.65625	1714.88745	324.64050	827.47015	1724.40698	384.41895	830.22974	1739.32043	351.97620	752.90289	1325.73816	260.31766	1390.59155	1210.55444	312.09512	1198.40063	1197.46338	307.08386	1070.46436	1181.08020	235.05716	967.46588	1221.95679	120.07504	893.93781	1178.23376	154.05981	875.77594	1188.20532	88.85184	823.18817	1575.27759	226.40364	933.23230	1357.18799	224.02695	925.26074	1523.18628	411.45905	940.96442	1379.46204	408.29288	946.41876	1648.39575	168.99921	620.97760	1632.26782	138.36227	490.39749	1650.17627	159.50073	305.92111	1609.89526	138.97067	81.74249	1552.00818	171.68965	41.56221	1625.99658	-4.86780	71.21862	1317.63708	326.82059	597.50989	1348.17444	350.97336	439.96115	1349.56067	437.58685	285.78070	1401.79004	508.53735	93.09549	1450.99915	564.47180	65.79134	1404.38489	376.95450	35.92815	1445.50171	161.25795	1694.65491	-3101.98145	1973.13171	1023.44043	-3140.85742	2012.56055	1022.10919						 
68	0.670	1537.05725	161.92122	1655.31775	1425.59802	141.61891	1658.44983	1522.52783	282.65585	1627.70105	1403.37219	264.10406	1630.16675	1472.05835	340.95786	1430.39331	1457.90002	386.96039	1137.18567	1483.02771	201.36568	1355.10938	1487.92065	164.99515	1200.01941	1383.95972	396.68289	1238.86462	1639.38574	275.90042	1386.74304	1709.01111	350.32108	1210.73669	1696.14514	393.85043	1064.95129	1721.36023	379.44519	951.51965	1713.76111	317.01080	825.43115	1723.63000	376.70349	829.03418	1737.66589	345.42130	750.93750	1327.25537	249.71628	1389.79321	1211.70178	301.02347	1197.91577	1198.37390	295.90033	1069.94067	1182.51282	222.49548	967.85034	1223.97778	106.47310	896.25464	1180.14978	139.96480	877.32867	1190.39587	73.98046	826.07922	1575.66772	214.64706	932.35022	1357.54321	213.96710	924.83551	1525.09595	400.13293	940.30817	1381.40320	398.22607	946.22931	1649.09583	160.73709	618.39093	1632.09851	128.43350	488.86383	1650.68481	141.27020	304.47946	1611.64648	110.26814	80.98753	1554.21472	141.76459	38.92314	1625.44580	-34.74217	76.60007	1317.61487	319.71060	597.50494	1348.30396	345.04919	439.90289	1349.55396	433.82004	287.04300	1401.52087	507.22208	95.11757	1450.74695	563.59613	68.65484	1404.29285	376.76825	35.95010	1447.26514	149.57101	1693.44739	-3102.09033	1972.95691	1024.07947	-3140.70947	2012.57166	1022.14557						 
69	0.680	1538.85095	150.50699	1654.09473	1427.38196	130.13272	1657.25464	1524.21973	271.29810	1626.84912	1404.77881	252.60590	1629.39758	1473.68188	330.08981	1429.38416	1459.75000	376.21014	1136.21094	1484.46716	190.52531	1354.11694	1489.02319	154.14163	1199.12073	1385.55981	386.12665	1238.12463	1641.00598	264.75089	1385.69617	1710.42212	339.02728	1209.46838	1696.69263	382.76883	1063.93628	1721.48010	369.56232	950.39679	1712.94470	308.87936	823.45032	1723.07239	368.50403	827.80878	1736.61462	338.54785	749.28210	1328.79846	239.06145	1389.08533	1212.91028	290.14163	1197.41138	1199.43750	284.74500	1069.38428	1184.02673	209.98502	968.10992	1225.99854	93.19116	898.31091	1182.26978	126.28514	878.81976	1192.67554	59.54188	828.61969	1576.05188	202.73158	931.41888	1357.87659	203.83870	924.23602	1526.97888	388.62408	939.47729	1383.40356	387.79077	945.77960	1650.16772	152.53891	615.57227	1632.45508	118.52950	487.55972	1651.68103	124.36600	303.52612	1612.62195	83.64790	80.89764	1555.55530	114.12917	37.69175	1624.40686	-62.15109	81.53529	1317.72168	312.02884	597.40479	1348.18347	338.63055	439.82230	1349.30823	429.83148	288.35547	1401.05298	505.76596	96.96854	1450.45227	562.72357	71.78193	1404.21143	376.53345	35.98708	1449.03503	138.23651	1692.02344	-3101.88623	1973.12817	1023.44043	-3140.81006	2012.49780	1022.13367						 
